<mxfile host="Electron" modified="2024-01-24T04:08:23.449Z" agent="Mozilla/5.0 (Windows NT 10.0; Win64; x64) AppleWebKit/537.36 (KHTML, like Gecko) draw.io/22.1.18 Chrome/120.0.6099.199 Electron/28.1.2 Safari/537.36" etag="DgItRtkl9VKy3f7PFzdU" version="22.1.18" type="device">
  <diagram name="Page-1" id="wJCzwyd76sdqpTbjYkt2">
    <mxGraphModel dx="2284" dy="1944" grid="1" gridSize="10" guides="1" tooltips="1" connect="1" arrows="1" fold="1" page="1" pageScale="1" pageWidth="850" pageHeight="1100" math="0" shadow="0">
      <root>
        <mxCell id="0" />
        <mxCell id="1" parent="0" />
        <mxCell id="oLgYxJz_EoXrqAvK1hKy-1" value="" style="rounded=0;whiteSpace=wrap;html=1;" parent="1" vertex="1">
          <mxGeometry x="-50" y="-100" width="1140" height="850" as="geometry" />
        </mxCell>
        <mxCell id="oLgYxJz_EoXrqAvK1hKy-2" value="" style="rounded=0;whiteSpace=wrap;html=1;fillColor=#e1d5e7;strokeColor=#9673a6;" parent="1" vertex="1">
          <mxGeometry x="190" y="10" width="670" height="600" as="geometry" />
        </mxCell>
        <mxCell id="oLgYxJz_EoXrqAvK1hKy-3" value="&lt;b&gt;slave module interface&lt;/b&gt;" style="rounded=0;whiteSpace=wrap;html=1;fillColor=#d5e8d4;strokeColor=#82b366;" parent="1" vertex="1">
          <mxGeometry x="60" y="10" width="110" height="600" as="geometry" />
        </mxCell>
        <mxCell id="oLgYxJz_EoXrqAvK1hKy-4" value="&lt;b&gt;slave&amp;nbsp; interface&lt;/b&gt;" style="rounded=0;whiteSpace=wrap;html=1;fillColor=#d5e8d4;strokeColor=#82b366;" parent="1" vertex="1">
          <mxGeometry x="230" y="60" width="60" height="420" as="geometry" />
        </mxCell>
        <mxCell id="oLgYxJz_EoXrqAvK1hKy-5" value="" style="shape=flexArrow;endArrow=classic;startArrow=classic;html=1;rounded=0;exitX=0.997;exitY=0.433;exitDx=0;exitDy=0;entryX=0;entryY=0.5;entryDx=0;entryDy=0;exitPerimeter=0;width=7.0588235294117645;startSize=4.176470588235294;fillColor=#6a00ff;strokeColor=#3700CC;" parent="1" source="oLgYxJz_EoXrqAvK1hKy-3" target="oLgYxJz_EoXrqAvK1hKy-4" edge="1">
          <mxGeometry width="100" height="100" relative="1" as="geometry">
            <mxPoint x="430" y="300" as="sourcePoint" />
            <mxPoint x="530" y="200" as="targetPoint" />
          </mxGeometry>
        </mxCell>
        <mxCell id="oLgYxJz_EoXrqAvK1hKy-6" value="" style="rounded=0;whiteSpace=wrap;html=1;fillColor=#d5e8d4;strokeColor=#82b366;" parent="1" vertex="1">
          <mxGeometry x="340" y="60" width="75" height="420" as="geometry" />
        </mxCell>
        <mxCell id="oLgYxJz_EoXrqAvK1hKy-7" value="&lt;b style=&quot;font-size: 14px;&quot;&gt;Register&amp;nbsp;&lt;br&gt;block&lt;/b&gt;" style="text;html=1;align=center;verticalAlign=middle;resizable=0;points=[];autosize=1;strokeColor=none;fillColor=none;" parent="1" vertex="1">
          <mxGeometry x="336.5" y="60" width="80" height="50" as="geometry" />
        </mxCell>
        <mxCell id="oLgYxJz_EoXrqAvK1hKy-10" value="local address" style="rounded=0;whiteSpace=wrap;html=1;fillColor=#008a00;strokeColor=#005700;fontColor=#ffffff;" parent="1" vertex="1">
          <mxGeometry x="346.5" y="316.5" width="60" height="35" as="geometry" />
        </mxCell>
        <mxCell id="oLgYxJz_EoXrqAvK1hKy-12" value="transmit" style="rounded=0;whiteSpace=wrap;html=1;fillColor=#008a00;strokeColor=#005700;fontColor=#ffffff;" parent="1" vertex="1">
          <mxGeometry x="346.5" y="365.75" width="60" height="35" as="geometry" />
        </mxCell>
        <mxCell id="oLgYxJz_EoXrqAvK1hKy-13" value="receive" style="rounded=0;whiteSpace=wrap;html=1;fillColor=#008a00;strokeColor=#005700;fontColor=#ffffff;" parent="1" vertex="1">
          <mxGeometry x="347.5" y="424" width="60" height="35" as="geometry" />
        </mxCell>
        <mxCell id="oLgYxJz_EoXrqAvK1hKy-14" value="" style="shape=flexArrow;endArrow=classic;startArrow=classic;html=1;rounded=0;exitX=1;exitY=0.5;exitDx=0;exitDy=0;fillColor=#6a00ff;strokeColor=#3700CC;strokeWidth=0;" parent="1" source="oLgYxJz_EoXrqAvK1hKy-4" edge="1">
          <mxGeometry width="100" height="100" relative="1" as="geometry">
            <mxPoint x="310" y="269" as="sourcePoint" />
            <mxPoint x="340" y="270" as="targetPoint" />
          </mxGeometry>
        </mxCell>
        <mxCell id="oLgYxJz_EoXrqAvK1hKy-16" style="edgeStyle=orthogonalEdgeStyle;rounded=0;orthogonalLoop=1;jettySize=auto;html=1;exitX=1;exitY=0.5;exitDx=0;exitDy=0;entryX=0.5;entryY=0;entryDx=0;entryDy=0;dashed=1;strokeWidth=3;" parent="1" edge="1">
          <mxGeometry relative="1" as="geometry">
            <mxPoint x="630" y="206.5" as="sourcePoint" />
            <mxPoint x="715" y="260" as="targetPoint" />
          </mxGeometry>
        </mxCell>
        <mxCell id="oLgYxJz_EoXrqAvK1hKy-61" style="edgeStyle=orthogonalEdgeStyle;rounded=0;orthogonalLoop=1;jettySize=auto;html=1;entryX=0.5;entryY=1;entryDx=0;entryDy=0;strokeWidth=3;" parent="1" source="oLgYxJz_EoXrqAvK1hKy-20" target="oLgYxJz_EoXrqAvK1hKy-50" edge="1">
          <mxGeometry relative="1" as="geometry" />
        </mxCell>
        <mxCell id="oLgYxJz_EoXrqAvK1hKy-20" value="" style="rounded=0;whiteSpace=wrap;html=1;fillColor=#d5e8d4;strokeColor=#82b366;" parent="1" vertex="1">
          <mxGeometry x="500" y="304" width="130" height="190" as="geometry" />
        </mxCell>
        <mxCell id="oLgYxJz_EoXrqAvK1hKy-21" value="Transmit&lt;br&gt;FIFO" style="rounded=0;whiteSpace=wrap;html=1;fillColor=#6a00ff;fontColor=#ffffff;strokeColor=#3700CC;" parent="1" vertex="1">
          <mxGeometry x="517.5" y="358" width="95" height="52.5" as="geometry" />
        </mxCell>
        <mxCell id="oLgYxJz_EoXrqAvK1hKy-22" value="Receive&amp;nbsp;&lt;br&gt;FIFO" style="rounded=0;whiteSpace=wrap;html=1;fillColor=#6a00ff;fontColor=#ffffff;strokeColor=#3700CC;" parent="1" vertex="1">
          <mxGeometry x="517.5" y="421" width="95" height="52.5" as="geometry" />
        </mxCell>
        <mxCell id="oLgYxJz_EoXrqAvK1hKy-23" value="&lt;b&gt;&lt;font style=&quot;font-size: 14px;&quot;&gt;FIFO block&lt;/font&gt;&lt;/b&gt;" style="text;html=1;align=center;verticalAlign=middle;resizable=0;points=[];autosize=1;strokeColor=none;fillColor=none;" parent="1" vertex="1">
          <mxGeometry x="515" y="319" width="100" height="30" as="geometry" />
        </mxCell>
        <mxCell id="oLgYxJz_EoXrqAvK1hKy-25" value="" style="endArrow=classic;html=1;rounded=0;exitX=0.11;exitY=1.1;exitDx=0;exitDy=0;entryX=0.001;entryY=0.159;entryDx=0;entryDy=0;strokeWidth=3;fillColor=#d80073;strokeColor=#A50040;entryPerimeter=0;exitPerimeter=0;" parent="1" source="SpyX0AuoRIlXKmq0SyP7-1" edge="1">
          <mxGeometry width="50" height="50" relative="1" as="geometry">
            <mxPoint x="263.5" y="651.25" as="sourcePoint" />
            <mxPoint x="500.1300000000001" y="167.28500000000008" as="targetPoint" />
            <Array as="points">
              <mxPoint x="480" y="649" />
              <mxPoint x="480" y="560" />
              <mxPoint x="480" y="167" />
            </Array>
          </mxGeometry>
        </mxCell>
        <mxCell id="oLgYxJz_EoXrqAvK1hKy-29" value="" style="endArrow=classic;html=1;rounded=0;exitX=1;exitY=0.5;exitDx=0;exitDy=0;entryX=0;entryY=0.5;entryDx=0;entryDy=0;strokeWidth=3;" parent="1" source="oLgYxJz_EoXrqAvK1hKy-12" target="oLgYxJz_EoXrqAvK1hKy-21" edge="1">
          <mxGeometry width="50" height="50" relative="1" as="geometry">
            <mxPoint x="470" y="350" as="sourcePoint" />
            <mxPoint x="520" y="300" as="targetPoint" />
          </mxGeometry>
        </mxCell>
        <mxCell id="oLgYxJz_EoXrqAvK1hKy-31" value="" style="endArrow=classic;html=1;rounded=0;exitX=-0.005;exitY=0.41;exitDx=0;exitDy=0;exitPerimeter=0;entryX=1;entryY=0.5;entryDx=0;entryDy=0;strokeWidth=3;" parent="1" source="oLgYxJz_EoXrqAvK1hKy-22" target="oLgYxJz_EoXrqAvK1hKy-13" edge="1">
          <mxGeometry width="50" height="50" relative="1" as="geometry">
            <mxPoint x="435" y="440" as="sourcePoint" />
            <mxPoint x="485" y="390" as="targetPoint" />
          </mxGeometry>
        </mxCell>
        <mxCell id="oLgYxJz_EoXrqAvK1hKy-32" value="" style="endArrow=classic;html=1;rounded=0;exitX=0.5;exitY=1;exitDx=0;exitDy=0;entryX=0.25;entryY=1;entryDx=0;entryDy=0;strokeWidth=3;fillColor=#0050ef;strokeColor=#001DBC;" parent="1" source="oLgYxJz_EoXrqAvK1hKy-4" target="oLgYxJz_EoXrqAvK1hKy-20" edge="1">
          <mxGeometry width="50" height="50" relative="1" as="geometry">
            <mxPoint x="300" y="530" as="sourcePoint" />
            <mxPoint x="350" y="480" as="targetPoint" />
            <Array as="points">
              <mxPoint x="260" y="520" />
              <mxPoint x="533" y="520" />
            </Array>
          </mxGeometry>
        </mxCell>
        <mxCell id="oLgYxJz_EoXrqAvK1hKy-33" value="" style="endArrow=classic;html=1;rounded=0;entryX=0.75;entryY=1;entryDx=0;entryDy=0;strokeWidth=3;fillColor=#d80073;strokeColor=#A50040;" parent="1" target="oLgYxJz_EoXrqAvK1hKy-20" edge="1">
          <mxGeometry width="50" height="50" relative="1" as="geometry">
            <mxPoint x="480" y="560" as="sourcePoint" />
            <mxPoint x="590" y="520" as="targetPoint" />
            <Array as="points">
              <mxPoint x="598" y="560" />
            </Array>
          </mxGeometry>
        </mxCell>
        <mxCell id="oLgYxJz_EoXrqAvK1hKy-36" value="" style="endArrow=classic;html=1;rounded=0;exitX=1;exitY=0.5;exitDx=0;exitDy=0;entryX=0;entryY=0.53;entryDx=0;entryDy=0;strokeWidth=3;entryPerimeter=0;" parent="1" source="oLgYxJz_EoXrqAvK1hKy-21" edge="1">
          <mxGeometry width="50" height="50" relative="1" as="geometry">
            <mxPoint x="660" y="275" as="sourcePoint" />
            <mxPoint x="670" y="384.02" as="targetPoint" />
          </mxGeometry>
        </mxCell>
        <mxCell id="oLgYxJz_EoXrqAvK1hKy-37" value="" style="endArrow=classic;html=1;rounded=0;entryX=1;entryY=0.5;entryDx=0;entryDy=0;strokeWidth=3;" parent="1" target="oLgYxJz_EoXrqAvK1hKy-22" edge="1">
          <mxGeometry width="50" height="50" relative="1" as="geometry">
            <mxPoint x="670" y="447" as="sourcePoint" />
            <mxPoint x="550" y="250" as="targetPoint" />
          </mxGeometry>
        </mxCell>
        <mxCell id="oLgYxJz_EoXrqAvK1hKy-38" value="" style="endArrow=classic;html=1;rounded=0;entryX=0.911;entryY=0.069;entryDx=0;entryDy=0;entryPerimeter=0;strokeWidth=3;fillColor=#d80073;strokeColor=#A50040;" parent="1" edge="1">
          <mxGeometry width="50" height="50" relative="1" as="geometry">
            <mxPoint x="720" y="90" as="sourcePoint" />
            <mxPoint x="899.69" y="89.8125" as="targetPoint" />
          </mxGeometry>
        </mxCell>
        <mxCell id="oLgYxJz_EoXrqAvK1hKy-39" value="" style="endArrow=classic;startArrow=classic;html=1;rounded=0;entryX=0.911;entryY=0.14;entryDx=0;entryDy=0;entryPerimeter=0;strokeWidth=3;exitX=1;exitY=0.5;exitDx=0;exitDy=0;" parent="1" edge="1">
          <mxGeometry width="50" height="50" relative="1" as="geometry">
            <mxPoint x="760" y="377" as="sourcePoint" />
            <mxPoint x="899.69" y="129.75" as="targetPoint" />
            <Array as="points">
              <mxPoint x="820" y="377" />
              <mxPoint x="820" y="130" />
            </Array>
          </mxGeometry>
        </mxCell>
        <mxCell id="oLgYxJz_EoXrqAvK1hKy-40" value="" style="endArrow=classic;html=1;rounded=0;entryX=0.992;entryY=0.183;entryDx=0;entryDy=0;entryPerimeter=0;strokeWidth=3;fillColor=#d80073;strokeColor=#A50040;" parent="1" edge="1">
          <mxGeometry width="50" height="50" relative="1" as="geometry">
            <mxPoint x="720" y="90" as="sourcePoint" />
            <mxPoint x="628.96" y="165.04500000000007" as="targetPoint" />
            <Array as="points">
              <mxPoint x="720" y="165" />
              <mxPoint x="670" y="165" />
            </Array>
          </mxGeometry>
        </mxCell>
        <mxCell id="oLgYxJz_EoXrqAvK1hKy-41" value="&lt;b&gt;&lt;font style=&quot;font-size: 14px;&quot;&gt;SCL&lt;/font&gt;&lt;/b&gt;" style="text;html=1;align=center;verticalAlign=middle;resizable=0;points=[];autosize=1;strokeColor=none;fillColor=none;" parent="1" vertex="1">
          <mxGeometry x="860" y="51" width="50" height="30" as="geometry" />
        </mxCell>
        <mxCell id="oLgYxJz_EoXrqAvK1hKy-42" value="&lt;b&gt;&lt;font style=&quot;font-size: 14px;&quot;&gt;SDA&lt;/font&gt;&lt;/b&gt;" style="text;html=1;align=center;verticalAlign=middle;resizable=0;points=[];autosize=1;strokeColor=none;fillColor=none;" parent="1" vertex="1">
          <mxGeometry x="860" y="140" width="50" height="30" as="geometry" />
        </mxCell>
        <mxCell id="oLgYxJz_EoXrqAvK1hKy-43" value="&lt;b&gt;&amp;nbsp;slave interface Clock&lt;/b&gt;" style="text;html=1;align=center;verticalAlign=middle;resizable=0;points=[];autosize=1;strokeColor=none;fillColor=none;" parent="1" vertex="1">
          <mxGeometry x="305" y="494" width="150" height="30" as="geometry" />
        </mxCell>
        <mxCell id="oLgYxJz_EoXrqAvK1hKy-44" value="" style="endArrow=classic;html=1;rounded=0;entryX=0.5;entryY=1;entryDx=0;entryDy=0;strokeWidth=3;fillColor=#d80073;strokeColor=#A50040;" parent="1" edge="1">
          <mxGeometry width="50" height="50" relative="1" as="geometry">
            <mxPoint x="600" y="560" as="sourcePoint" />
            <mxPoint x="715" y="494" as="targetPoint" />
            <Array as="points">
              <mxPoint x="715" y="560" />
            </Array>
          </mxGeometry>
        </mxCell>
        <mxCell id="oLgYxJz_EoXrqAvK1hKy-45" value="" style="endArrow=classic;html=1;rounded=0;entryX=0.998;entryY=0.346;entryDx=0;entryDy=0;entryPerimeter=0;strokeWidth=3;" parent="1" edge="1">
          <mxGeometry width="50" height="50" relative="1" as="geometry">
            <mxPoint x="820" y="190" as="sourcePoint" />
            <mxPoint x="629.7400000000002" y="188.7900000000002" as="targetPoint" />
          </mxGeometry>
        </mxCell>
        <mxCell id="oLgYxJz_EoXrqAvK1hKy-50" value="&lt;b&gt;FSM&amp;nbsp;&lt;/b&gt;" style="rounded=0;whiteSpace=wrap;html=1;fillColor=#d5e8d4;strokeColor=#82b366;" parent="1" vertex="1">
          <mxGeometry x="500" y="130" width="130" height="134" as="geometry" />
        </mxCell>
        <mxCell id="oLgYxJz_EoXrqAvK1hKy-59" style="edgeStyle=orthogonalEdgeStyle;rounded=0;orthogonalLoop=1;jettySize=auto;html=1;strokeWidth=3;" parent="1" source="oLgYxJz_EoXrqAvK1hKy-54" target="oLgYxJz_EoXrqAvK1hKy-50" edge="1">
          <mxGeometry relative="1" as="geometry" />
        </mxCell>
        <mxCell id="oLgYxJz_EoXrqAvK1hKy-54" value="&lt;b&gt;Address &lt;br&gt;comparator&lt;/b&gt;" style="rounded=0;whiteSpace=wrap;html=1;fillColor=#d5e8d4;strokeColor=#82b366;" parent="1" vertex="1">
          <mxGeometry x="500" y="20" width="130" height="55" as="geometry" />
        </mxCell>
        <mxCell id="oLgYxJz_EoXrqAvK1hKy-55" value="" style="endArrow=classic;html=1;rounded=0;exitX=1;exitY=0.5;exitDx=0;exitDy=0;entryX=0;entryY=0.25;entryDx=0;entryDy=0;strokeWidth=3;" parent="1" source="oLgYxJz_EoXrqAvK1hKy-10" target="oLgYxJz_EoXrqAvK1hKy-54" edge="1">
          <mxGeometry width="50" height="50" relative="1" as="geometry">
            <mxPoint x="500" y="270" as="sourcePoint" />
            <mxPoint x="550" y="220" as="targetPoint" />
            <Array as="points">
              <mxPoint x="430" y="334" />
              <mxPoint x="430" y="34" />
            </Array>
          </mxGeometry>
        </mxCell>
        <mxCell id="oLgYxJz_EoXrqAvK1hKy-58" value="" style="endArrow=classic;html=1;rounded=0;exitX=-0.022;exitY=0.154;exitDx=0;exitDy=0;exitPerimeter=0;entryX=0;entryY=0.75;entryDx=0;entryDy=0;strokeWidth=3;" parent="1" target="oLgYxJz_EoXrqAvK1hKy-54" edge="1">
          <mxGeometry width="50" height="50" relative="1" as="geometry">
            <mxPoint x="668.02" y="296.03600000000006" as="sourcePoint" />
            <mxPoint x="550" y="220" as="targetPoint" />
            <Array as="points">
              <mxPoint x="450" y="296" />
              <mxPoint x="450" y="61" />
            </Array>
          </mxGeometry>
        </mxCell>
        <mxCell id="I-YSKxrFtiXvinJwreuE-1" value="&lt;font&gt;fifo status&lt;/font&gt;" style="text;strokeColor=none;align=center;fillColor=none;html=1;verticalAlign=middle;whiteSpace=wrap;rounded=0;fontColor=default;" parent="1" vertex="1">
          <mxGeometry x="570" y="264" width="60" height="30" as="geometry" />
        </mxCell>
        <mxCell id="I-YSKxrFtiXvinJwreuE-2" value="&lt;font&gt;data_out&lt;/font&gt;" style="text;strokeColor=none;align=center;fillColor=none;html=1;verticalAlign=middle;whiteSpace=wrap;rounded=0;fontColor=default;" parent="1" vertex="1">
          <mxGeometry x="407.5" y="358" width="60" height="30" as="geometry" />
        </mxCell>
        <mxCell id="I-YSKxrFtiXvinJwreuE-3" value="&lt;font&gt;data_in&lt;/font&gt;" style="text;strokeColor=none;align=center;fillColor=none;html=1;verticalAlign=middle;whiteSpace=wrap;rounded=0;fontColor=default;" parent="1" vertex="1">
          <mxGeometry x="407.5" y="410.5" width="60" height="30" as="geometry" />
        </mxCell>
        <mxCell id="O8QDGdULPMH0wo2KDPWj-1" value="" style="endArrow=classic;html=1;rounded=0;exitX=1;exitY=0.5;exitDx=0;exitDy=0;entryX=0;entryY=0.53;entryDx=0;entryDy=0;strokeWidth=3;entryPerimeter=0;" parent="1" edge="1">
          <mxGeometry width="50" height="50" relative="1" as="geometry">
            <mxPoint x="880" y="430" as="sourcePoint" />
            <mxPoint x="937" y="430" as="targetPoint" />
          </mxGeometry>
        </mxCell>
        <mxCell id="O8QDGdULPMH0wo2KDPWj-2" value="" style="endArrow=classic;html=1;rounded=0;exitX=1;exitY=0.5;exitDx=0;exitDy=0;entryX=0;entryY=0.53;entryDx=0;entryDy=0;strokeWidth=3;entryPerimeter=0;dashed=1;" parent="1" edge="1">
          <mxGeometry width="50" height="50" relative="1" as="geometry">
            <mxPoint x="880" y="459" as="sourcePoint" />
            <mxPoint x="937" y="459" as="targetPoint" />
          </mxGeometry>
        </mxCell>
        <mxCell id="O8QDGdULPMH0wo2KDPWj-3" value="" style="endArrow=classic;html=1;rounded=0;exitX=1;exitY=0.5;exitDx=0;exitDy=0;entryX=0;entryY=0.53;entryDx=0;entryDy=0;strokeWidth=3;entryPerimeter=0;fillColor=#f8cecc;strokeColor=#a50040;" parent="1" edge="1">
          <mxGeometry width="50" height="50" relative="1" as="geometry">
            <mxPoint x="880" y="400.75" as="sourcePoint" />
            <mxPoint x="937" y="400.75" as="targetPoint" />
          </mxGeometry>
        </mxCell>
        <mxCell id="O8QDGdULPMH0wo2KDPWj-5" value="&lt;b&gt;data&lt;/b&gt;" style="text;html=1;align=center;verticalAlign=middle;resizable=0;points=[];autosize=1;strokeColor=none;fillColor=none;" parent="1" vertex="1">
          <mxGeometry x="940" y="414" width="50" height="30" as="geometry" />
        </mxCell>
        <mxCell id="O8QDGdULPMH0wo2KDPWj-6" value="&lt;b&gt;control&lt;/b&gt;" style="text;html=1;align=center;verticalAlign=middle;resizable=0;points=[];autosize=1;strokeColor=none;fillColor=none;" parent="1" vertex="1">
          <mxGeometry x="935" y="444" width="60" height="30" as="geometry" />
        </mxCell>
        <mxCell id="s-E8JHfZTfybHXNxiziK-1" value="8 bit" style="text;strokeColor=none;align=center;fillColor=none;html=1;verticalAlign=middle;whiteSpace=wrap;rounded=0;fontColor=default;" parent="1" vertex="1">
          <mxGeometry x="407.5" y="380.5" width="60" height="30" as="geometry" />
        </mxCell>
        <mxCell id="s-E8JHfZTfybHXNxiziK-3" value="&lt;font&gt;8 bit&lt;/font&gt;" style="text;strokeColor=none;align=center;fillColor=none;html=1;verticalAlign=middle;whiteSpace=wrap;rounded=0;fontColor=default;" parent="1" vertex="1">
          <mxGeometry x="407.5" y="444" width="60" height="30" as="geometry" />
        </mxCell>
        <mxCell id="s-E8JHfZTfybHXNxiziK-4" value="8 bit" style="text;strokeColor=none;align=center;fillColor=none;html=1;verticalAlign=middle;whiteSpace=wrap;rounded=0;fontColor=default;" parent="1" vertex="1">
          <mxGeometry x="600" y="358" width="60" height="30" as="geometry" />
        </mxCell>
        <mxCell id="s-E8JHfZTfybHXNxiziK-5" value="8 bit" style="text;strokeColor=none;align=center;fillColor=none;html=1;verticalAlign=middle;whiteSpace=wrap;rounded=0;fontColor=default;" parent="1" vertex="1">
          <mxGeometry x="600" y="421" width="60" height="30" as="geometry" />
        </mxCell>
        <mxCell id="s-E8JHfZTfybHXNxiziK-6" value="7 bit" style="text;strokeColor=none;align=center;fillColor=none;html=1;verticalAlign=middle;whiteSpace=wrap;rounded=0;fontColor=default;" parent="1" vertex="1">
          <mxGeometry x="425" y="10" width="60" height="30" as="geometry" />
        </mxCell>
        <mxCell id="s-E8JHfZTfybHXNxiziK-9" value="7 bit" style="text;strokeColor=none;align=center;fillColor=none;html=1;verticalAlign=middle;whiteSpace=wrap;rounded=0;fontColor=default;" parent="1" vertex="1">
          <mxGeometry x="440" y="60" width="60" height="30" as="geometry" />
        </mxCell>
        <mxCell id="SpyX0AuoRIlXKmq0SyP7-1" value="&lt;b&gt;i2c core clock&lt;/b&gt;" style="text;html=1;align=center;verticalAlign=middle;resizable=0;points=[];autosize=1;strokeColor=none;fillColor=none;" parent="1" vertex="1">
          <mxGeometry x="50" y="620" width="100" height="30" as="geometry" />
        </mxCell>
        <mxCell id="SpyX0AuoRIlXKmq0SyP7-2" value="" style="endArrow=classic;html=1;rounded=0;exitX=1;exitY=0.5;exitDx=0;exitDy=0;entryX=0;entryY=0.53;entryDx=0;entryDy=0;strokeWidth=3;entryPerimeter=0;fillColor=#0050ef;strokeColor=#001DBC;" parent="1" edge="1">
          <mxGeometry width="50" height="50" relative="1" as="geometry">
            <mxPoint x="878" y="372.5" as="sourcePoint" />
            <mxPoint x="935" y="372.5" as="targetPoint" />
          </mxGeometry>
        </mxCell>
        <mxCell id="SpyX0AuoRIlXKmq0SyP7-3" value="&lt;b&gt;i2c core clock&lt;/b&gt;" style="text;html=1;align=center;verticalAlign=middle;resizable=0;points=[];autosize=1;strokeColor=none;fillColor=none;" parent="1" vertex="1">
          <mxGeometry x="935" y="388" width="100" height="30" as="geometry" />
        </mxCell>
        <mxCell id="SpyX0AuoRIlXKmq0SyP7-4" value="&lt;b&gt;&amp;nbsp;slave interface Clock&lt;/b&gt;" style="text;html=1;align=center;verticalAlign=middle;resizable=0;points=[];autosize=1;strokeColor=none;fillColor=none;" parent="1" vertex="1">
          <mxGeometry x="920" y="358" width="150" height="30" as="geometry" />
        </mxCell>
        <mxCell id="_Nn54Ke2QLJX2RXMzSbG-2" value="" style="rounded=0;whiteSpace=wrap;html=1;fillColor=#d5e8d4;strokeColor=#82b366;" vertex="1" parent="1">
          <mxGeometry x="670" y="260" width="90" height="234" as="geometry" />
        </mxCell>
        <mxCell id="_Nn54Ke2QLJX2RXMzSbG-3" value="8 bit &lt;br&gt;to 1 bit" style="text;html=1;align=center;verticalAlign=middle;resizable=0;points=[];autosize=1;strokeColor=none;fillColor=none;" vertex="1" parent="1">
          <mxGeometry x="660" y="369.75" width="60" height="40" as="geometry" />
        </mxCell>
        <mxCell id="_Nn54Ke2QLJX2RXMzSbG-4" value="1 bit to &lt;br&gt;8 bit&amp;nbsp;" style="text;html=1;align=center;verticalAlign=middle;resizable=0;points=[];autosize=1;strokeColor=none;fillColor=none;" vertex="1" parent="1">
          <mxGeometry x="660" y="437.5" width="60" height="40" as="geometry" />
        </mxCell>
        <mxCell id="_Nn54Ke2QLJX2RXMzSbG-5" value="&lt;b&gt;DATA PATH&lt;/b&gt;" style="text;html=1;align=center;verticalAlign=middle;resizable=0;points=[];autosize=1;strokeColor=none;fillColor=none;" vertex="1" parent="1">
          <mxGeometry x="670" y="270" width="90" height="30" as="geometry" />
        </mxCell>
      </root>
    </mxGraphModel>
  </diagram>
</mxfile>
